<svg width="28" height="28" viewBox="0 0 28 28" fill="none" xmlns="http://www.w3.org/2000/svg">
<path d="M14 0.666672C21.3637 0.666672 27.3333 6.6362 27.3333 14C27.3333 21.3637 21.3637 27.3333 14 27.3333C6.6362 27.3333 0.666668 21.3637 0.666668 14C0.666668 6.6362 6.6362 0.666672 14 0.666672ZM19.3391 15.1703C18.8785 14.4711 18.5463 13.9661 17.2829 14.1664C14.8956 14.5453 14.6309 14.9632 14.5169 15.65L14.4848 15.8591L14.4524 16.0796C14.3221 16.9904 14.3271 17.3349 14.7452 17.7744C16.4321 19.5443 17.4427 20.82 17.7488 21.5661C17.8983 21.9312 18.2825 23.0335 18.0181 24.1236C19.6496 23.4755 21.0875 22.4443 22.2204 21.1412C22.3673 20.6428 22.4735 20.0221 22.4735 19.2691V19.1296C22.4735 17.8996 22.4735 17.3387 21.6041 16.8419C21.2373 16.6335 20.9636 16.508 20.7443 16.4085C20.2547 16.1859 19.9305 16.0396 19.4931 15.3999C19.4409 15.3237 19.39 15.2477 19.3391 15.1703ZM14 3.11111C10.9101 3.11111 8.12083 4.39811 6.13893 6.46528C6.37488 6.62915 6.58049 6.85938 6.72172 7.17675C6.99372 7.78706 6.99372 8.41494 6.99372 8.97019C6.99317 9.40829 6.99256 9.82294 7.13323 10.124C7.32591 10.5351 8.1552 10.7097 8.88731 10.8632C9.14888 10.9182 9.4186 10.9744 9.66396 11.0424C10.3387 11.2298 10.8607 11.8353 11.2792 12.3216C11.4528 12.5241 11.7092 12.8217 11.8377 12.8956C11.9048 12.8475 12.12 12.6144 12.2265 12.2313C12.3076 11.9396 12.2845 11.6796 12.1652 11.5391C11.4197 10.6593 11.4603 8.96427 11.6907 8.33994C12.0536 7.35475 13.1873 7.42744 14.016 7.4813C14.3251 7.50119 14.6168 7.52031 14.8343 7.49302C15.6643 7.38888 15.9195 6.12718 16.1 5.88C16.4895 5.34642 17.6809 4.54281 18.4211 4.04606C17.07 3.4451 15.574 3.11111 14 3.11111Z" fill="#6ADA43"/>
</svg>
