<svg width="20" height="20" viewBox="0 0 20 20" fill="none" xmlns="http://www.w3.org/2000/svg">
<g clip-path="url(#clip0_217_5803)">
<path d="M10 3.05469C10.3236 3.05469 10.5859 2.79234 10.5859 2.46875V0.585938C10.5859 0.262344 10.3236 0 10 0C9.67641 0 9.41406 0.262344 9.41406 0.585938V2.46875C9.41406 2.79234 9.67641 3.05469 10 3.05469Z" fill="white"/>
<path d="M4.26027 5.08895C4.4891 5.31777 4.86008 5.31777 5.08891 5.08895C5.31773 4.86012 5.31773 4.48914 5.08891 4.26031L3.75758 2.92895C3.52875 2.70012 3.15777 2.70012 2.92895 2.92895C2.70012 3.15777 2.70012 3.52875 2.92895 3.75758L4.26027 5.08895Z" fill="white"/>
<path d="M4.26003 14.9114L2.9287 16.2427C2.69987 16.4715 2.69987 16.8425 2.9287 17.0713C3.15753 17.3002 3.52851 17.3002 3.75733 17.0713L5.0887 15.74C5.31753 15.5112 5.31753 15.1402 5.0887 14.9113C4.85987 14.6825 4.48886 14.6826 4.26003 14.9114Z" fill="white"/>
<path d="M10 16.9453C9.67641 16.9453 9.41406 17.2077 9.41406 17.5312V19.4141C9.41406 19.7377 9.67641 20 10 20C10.3236 20 10.5859 19.7377 10.5859 19.4141V17.5312C10.5859 17.2077 10.3236 16.9453 10 16.9453Z" fill="white"/>
<path d="M3.05469 10C3.05469 9.67641 2.79234 9.41406 2.46875 9.41406H0.585938C0.262344 9.41406 0 9.67641 0 10C0 10.3236 0.262344 10.5859 0.585938 10.5859H2.46875C2.79234 10.5859 3.05469 10.3236 3.05469 10Z" fill="white"/>
<path d="M9.99993 5.021C7.25442 5.021 5.02075 7.25467 5.02075 10.0002C5.02075 12.7457 7.25442 14.9794 9.99993 14.9794C12.7454 14.9794 14.9791 12.7457 14.9791 10.0002C14.9791 7.25467 12.7454 5.021 9.99993 5.021Z" fill="white"/>
<path d="M15.74 5.08895L17.0714 3.75758C17.3002 3.52875 17.3002 3.15777 17.0714 2.92895C16.8425 2.70012 16.4716 2.70012 16.2427 2.92895L14.9114 4.26031C14.6825 4.48914 14.6825 4.86012 14.9114 5.08895C15.1402 5.31777 15.5112 5.31777 15.74 5.08895Z" fill="white"/>
<path d="M15.7398 14.9109C15.5109 14.6821 15.14 14.6821 14.9111 14.9109C14.6823 15.1397 14.6823 15.5107 14.9111 15.7395L16.2425 17.0709C16.4713 17.2997 16.8423 17.2997 17.0711 17.0709C17.3 16.8421 17.3 16.4711 17.0711 16.2422L15.7398 14.9109Z" fill="white"/>
<path d="M19.4141 9.41406H17.5312C17.2077 9.41406 16.9453 9.67641 16.9453 10C16.9453 10.3236 17.2077 10.5859 17.5312 10.5859H19.4141C19.7377 10.5859 20 10.3236 20 10C20 9.67641 19.7377 9.41406 19.4141 9.41406Z" fill="white"/>
</g>
<defs>
<clipPath id="clip0_217_5803">
<rect width="20" height="20" fill="white"/>
</clipPath>
</defs>
</svg>
