<svg width="30" height="30" viewBox="0 0 30 30" fill="none" xmlns="http://www.w3.org/2000/svg">
<path d="M9.02716 7.30666H11.699C12.209 7.30666 12.6239 7.7215 12.6239 8.2315V8.69182C12.6239 8.69182 12.6229 8.69463 12.6229 8.6965V16.8556C12.6229 17.7696 13.3664 18.5131 14.28 18.5131H25.2267C25.4245 18.5131 25.6008 18.3888 25.6673 18.2032L28.2923 10.916C28.2923 10.916 28.2937 10.9118 28.2947 10.9099L29.0348 8.85541C29.0864 8.71197 29.0653 8.55213 28.9776 8.42697C28.8895 8.30182 28.747 8.22775 28.5942 8.22775H13.5609C13.5586 7.20307 12.7247 6.36963 11.699 6.36963H9.02716C8.76794 6.36963 8.55841 6.57963 8.55841 6.83838C8.55841 7.09713 8.76794 7.30666 9.02716 7.30666ZM27.5315 10.2621H17.4276C17.1684 10.2621 16.9589 10.4721 16.9589 10.7309C16.9589 10.9896 17.1684 11.1996 17.4276 11.1996H27.194L24.8972 17.5751H14.28C13.8839 17.5751 13.5618 17.2535 13.5604 16.8574C13.5604 16.856 13.5609 16.8551 13.5609 16.8542V9.16525H27.9262L27.5311 10.2626L27.5315 10.2621Z" fill="#63EE6A"/>
<path d="M17.6799 21.7953C17.6799 20.4687 16.6003 19.3892 15.2738 19.3892C13.9472 19.3892 12.8677 20.4687 12.8677 21.7953C12.8677 23.1218 13.9472 24.2009 15.2738 24.2009C16.6003 24.2009 17.6799 23.1218 17.6799 21.7953ZM13.8052 21.7953C13.8052 20.9853 14.4638 20.3267 15.2738 20.3267C16.0838 20.3267 16.7424 20.9853 16.7424 21.7953C16.7424 22.6053 16.0838 23.2634 15.2738 23.2634C14.4638 23.2634 13.8052 22.6048 13.8052 21.7953Z" fill="#63EE6A"/>
<path d="M26.1197 21.7953C26.1197 20.4687 25.0402 19.3892 23.7136 19.3892C22.387 19.3892 21.3075 20.4687 21.3075 21.7953C21.3075 23.1218 22.387 24.2009 23.7136 24.2009C25.0402 24.2009 26.1197 23.1218 26.1197 21.7953ZM22.245 21.7953C22.245 20.9853 22.9036 20.3267 23.7136 20.3267C24.5236 20.3267 25.1822 20.9853 25.1822 21.7953C25.1822 22.6053 24.5236 23.2634 23.7136 23.2634C22.9036 23.2634 22.245 22.6048 22.245 21.7953Z" fill="#63EE6A"/>
<path d="M15.2953 11.2012H16.079C16.3383 11.2012 16.5478 10.9912 16.5478 10.7324C16.5478 10.4737 16.3383 10.2637 16.079 10.2637H15.2953C15.0361 10.2637 14.8265 10.4737 14.8265 10.7324C14.8265 10.9912 15.0361 11.2012 15.2953 11.2012Z" fill="#63EE6A"/>
<path d="M5.41357 10.7812H10.1311C10.3903 10.7812 10.5998 10.5713 10.5998 10.3125C10.5998 10.0538 10.3903 9.84375 10.1311 9.84375H5.41357C5.15436 9.84375 4.94482 10.0538 4.94482 10.3125C4.94482 10.5713 5.15436 10.7812 5.41357 10.7812Z" fill="#63EE6A"/>
<path d="M2.28326 13.125H8.63389C8.89311 13.125 9.10264 12.915 9.10264 12.6562C9.10264 12.3975 8.89311 12.1875 8.63389 12.1875H2.28326C2.02405 12.1875 1.81451 12.3975 1.81451 12.6562C1.81451 12.915 2.02405 13.125 2.28326 13.125Z" fill="#63EE6A"/>
<path d="M10.1311 14.5312H7.13672C6.8775 14.5312 6.66797 14.7413 6.66797 15C6.66797 15.2588 6.8775 15.4688 7.13672 15.4688H10.1311C10.3903 15.4688 10.5998 15.2588 10.5998 15C10.5998 14.7413 10.3903 14.5312 10.1311 14.5312Z" fill="#63EE6A"/>
<path d="M3.67456 17.3438C3.67456 17.6025 3.88409 17.8125 4.14331 17.8125H8.27159C8.53081 17.8125 8.74034 17.6025 8.74034 17.3438C8.74034 17.085 8.53081 16.875 8.27159 16.875H4.14331C3.88409 16.875 3.67456 17.085 3.67456 17.3438Z" fill="#63EE6A"/>
</svg>
