<svg width="16" height="22" viewBox="0 0 16 22" fill="none" xmlns="http://www.w3.org/2000/svg">
<path d="M15.0254 8.09947C14.9184 7.87663 14.693 7.7344 14.445 7.7344H10.3311L13.7325 0.932812C13.8319 0.733264 13.8219 0.49599 13.7048 0.305896C13.5865 0.115801 13.3788 0 13.156 0H5.42156C5.15343 0 4.91298 0.166805 4.81857 0.417958L0.951374 10.7305C0.877081 10.9288 0.904796 11.1503 1.02438 11.324C1.14525 11.4977 1.34286 11.6016 1.55436 11.6016H5.8848L3.50682 21.1994C3.43382 21.4934 3.5748 21.7986 3.8467 21.9333C4.1178 22.067 4.44578 21.9952 4.636 21.7584L14.9485 8.78177C15.1034 8.58789 15.1336 8.3229 15.0254 8.09947Z" fill="#6ADA43"/>
</svg>
