<svg width="22" height="22" viewBox="0 0 22 22" fill="none" xmlns="http://www.w3.org/2000/svg">
<g clip-path="url(#clip0_217_5520)">
<path d="M11.3599 16.8812L8.23199 20.0092C7.3995 20.8417 6.29266 21.3001 5.11536 21.3001C3.93806 21.3001 2.83117 20.8417 1.99873 20.0092C0.280208 18.2907 0.280208 15.4945 1.99873 13.7759L7.88735 7.88731C8.71984 7.05483 9.82668 6.59638 11.004 6.59638C12.1813 6.59638 13.2881 7.05483 14.1206 7.88731C14.6063 8.37296 14.9719 8.96634 15.1868 9.6131L12.3999 12.3999C12.025 12.7749 11.5264 12.9814 10.9961 12.9814C10.4658 12.9814 9.96723 12.7749 9.59226 12.3999C9.40311 12.2107 9.25671 11.9901 9.15708 11.744C9.08432 11.5642 8.87963 11.4775 8.69984 11.5502C8.52006 11.623 8.43335 11.8277 8.50611 12.0075C8.64127 12.3413 8.83965 12.6404 9.0957 12.8965C9.60335 13.4041 10.2783 13.6837 10.9962 13.6837C11.714 13.6837 12.389 13.4041 12.8966 12.8965L18.7851 7.00792C19.2928 6.50031 19.5723 5.82537 19.5723 5.1075C19.5723 4.38963 19.2928 3.71469 18.7851 3.20708C18.2775 2.69948 17.6026 2.41992 16.8847 2.41992C16.1668 2.41992 15.4919 2.69948 14.9843 3.20708L13.125 5.06639C12.9878 5.20353 12.9878 5.42587 13.125 5.56295C13.2621 5.70008 13.4844 5.70008 13.6215 5.56295L15.4808 3.70364C15.8558 3.32867 16.3544 3.12215 16.8846 3.12215C17.4149 3.12215 17.9135 3.32867 18.2885 3.7036C18.6634 4.07861 18.8699 4.57714 18.8699 5.10745C18.8699 5.63777 18.6634 6.13629 18.2885 6.51131L15.7327 9.0671C15.4768 8.44328 15.0977 7.87135 14.6171 7.39075C12.6247 5.39839 9.38298 5.39839 7.39065 7.39075L1.50218 13.2794C-0.490146 15.2717 -0.490146 18.5134 1.50218 20.5058C2.49834 21.5019 3.80687 22 5.11536 22C6.4239 22 7.73243 21.502 8.72859 20.5058L11.8565 17.3778C11.9937 17.2407 11.9937 17.0184 11.8565 16.8813C11.7194 16.7441 11.4971 16.7441 11.3599 16.8812Z" fill="#63EE6A"/>
<path d="M20.4979 1.49426C18.5056 -0.49811 15.2638 -0.498063 13.2715 1.49426L10.1397 4.62615C10.0025 4.76328 10.0025 4.98562 10.1397 5.12271C10.2768 5.25984 10.4991 5.25984 10.6362 5.12271L13.7681 1.99082C15.4867 0.272291 18.2829 0.272291 20.0014 1.99082C21.7199 3.70934 21.7199 6.50554 20.0014 8.22407L14.1127 14.1127C13.2803 14.9452 12.1734 15.4036 10.9961 15.4036C9.81881 15.4036 8.71197 14.9452 7.87949 14.1127C7.39374 13.6269 7.02828 13.0337 6.81333 12.3869L9.60012 9.60012C9.97509 9.22515 10.4737 9.01863 11.0039 9.01863C11.5342 9.01863 12.0328 9.22515 12.4078 9.60012C12.597 9.78926 12.7434 10.0099 12.843 10.256C12.9158 10.4358 13.1206 10.5225 13.3002 10.4498C13.48 10.377 13.5667 10.1723 13.494 9.99255C13.3588 9.65869 13.1604 9.35956 12.9043 9.10351C12.3967 8.5959 11.7218 8.31635 11.0039 8.31635C10.2861 8.31635 9.61112 8.5959 9.10352 9.10351L6.23306 11.974C6.18142 12.0045 6.13933 12.0471 6.10974 12.0973L3.21494 14.9921C2.70729 15.4997 2.42773 16.1746 2.42773 16.8925C2.42773 17.6104 2.70729 18.2853 3.21494 18.7929C3.72255 19.3005 4.39744 19.5801 5.11531 19.5801C5.83318 19.5801 6.50812 19.3005 7.01573 18.7929L8.87233 16.9363C9.00946 16.7992 9.00946 16.5768 8.87233 16.4398C8.73519 16.3026 8.51285 16.3026 8.37577 16.4398L6.51917 18.2964C6.1442 18.6713 5.64563 18.8778 5.11531 18.8778C4.585 18.8778 4.08647 18.6713 3.7115 18.2964C3.33653 17.9214 3.13001 17.4229 3.13001 16.8925C3.13001 16.3622 3.33653 15.8637 3.7115 15.4887L6.26724 12.933C6.52315 13.5568 6.90215 14.1286 7.38284 14.6093C8.34796 15.5744 9.63116 16.1059 10.996 16.1059C12.3609 16.1059 13.6441 15.5744 14.6092 14.6093L20.4978 8.72067C22.4902 6.72831 22.4902 3.48658 20.4979 1.49426Z" fill="#63EE6A"/>
</g>
<defs>
<clipPath id="clip0_217_5520">
<rect width="22" height="22" fill="white"/>
</clipPath>
</defs>
</svg>
