<svg width="22" height="22" viewBox="0 0 22 22" fill="none" xmlns="http://www.w3.org/2000/svg">
<g clip-path="url(#clip0_215_175)">
<path d="M11.3599 16.8812L8.23196 20.0092C7.39947 20.8417 6.29263 21.3001 5.11533 21.3001C3.93803 21.3001 2.83114 20.8417 1.9987 20.0092C0.280178 18.2907 0.280178 15.4945 1.9987 13.7759L7.88732 7.88731C8.71981 7.05483 9.82665 6.59638 11.0039 6.59638C12.1813 6.59638 13.2881 7.05483 14.1206 7.88731C14.6062 8.37296 14.9718 8.96634 15.1867 9.6131L12.3999 12.3999C12.0249 12.7749 11.5264 12.9814 10.9961 12.9814C10.4658 12.9814 9.9672 12.7749 9.59223 12.3999C9.40308 12.2107 9.25668 11.9901 9.15705 11.744C9.08429 11.5642 8.8796 11.4775 8.69981 11.5502C8.52003 11.623 8.43332 11.8277 8.50608 12.0074C8.64124 12.3413 8.83961 12.6404 9.09567 12.8965C9.60332 13.4041 10.2783 13.6837 10.9961 13.6837C11.714 13.6837 12.3889 13.4041 12.8965 12.8965L18.7851 7.00792C19.2927 6.50031 19.5723 5.82537 19.5723 5.1075C19.5723 4.38963 19.2927 3.71469 18.7851 3.20708C18.2775 2.69948 17.6026 2.41992 16.8847 2.41992C16.1668 2.41992 15.4918 2.69948 14.9842 3.20708L13.1249 5.06639C12.9878 5.20353 12.9878 5.42587 13.1249 5.56295C13.2621 5.70008 13.4844 5.70008 13.6215 5.56295L15.4808 3.70364C15.8558 3.32867 16.3543 3.12215 16.8846 3.12215C17.4149 3.12215 17.9135 3.32867 18.2884 3.7036C18.6634 4.07861 18.8699 4.57714 18.8699 5.10745C18.8699 5.63777 18.6634 6.13629 18.2884 6.51131L15.7326 9.0671C15.4767 8.44328 15.0976 7.87135 14.617 7.39075C12.6247 5.39839 9.38295 5.39839 7.39062 7.39075L1.50215 13.2794C-0.490176 15.2717 -0.490176 18.5134 1.50215 20.5058C2.49831 21.5019 3.80684 22.0001 5.11533 22.0001C6.42387 22.0001 7.7324 21.502 8.72856 20.5058L11.8565 17.3778C11.9936 17.2407 11.9936 17.0184 11.8565 16.8813C11.7194 16.7441 11.497 16.7441 11.3599 16.8812Z" fill="#B2B4BE"/>
<path d="M20.4979 1.49426C18.5056 -0.49811 15.2637 -0.498063 13.2715 1.49426L10.1396 4.62615C10.0025 4.76328 10.0025 4.98562 10.1396 5.12271C10.2768 5.25984 10.4991 5.25984 10.6362 5.12271L13.7681 1.99082C15.4866 0.272291 18.2828 0.272291 20.0013 1.99082C21.7199 3.70934 21.7199 6.50554 20.0013 8.22407L14.1127 14.1127C13.2802 14.9452 12.1734 15.4036 10.9961 15.4036C9.81878 15.4036 8.71194 14.9452 7.87946 14.1127C7.39371 13.6269 7.02825 13.0337 6.8133 12.3869L9.60009 9.60012C9.97506 9.22515 10.4736 9.01863 11.0039 9.01863C11.5342 9.01863 12.0327 9.22515 12.4078 9.60012C12.597 9.78926 12.7434 10.0099 12.843 10.256C12.9157 10.4358 13.1205 10.5225 13.3002 10.4498C13.48 10.377 13.5667 10.1723 13.494 9.99255C13.3588 9.65869 13.1604 9.35956 12.9043 9.10351C12.3967 8.5959 11.7218 8.31635 11.0039 8.31635C10.286 8.31635 9.61109 8.5959 9.10348 9.10351L6.23303 11.974C6.18139 12.0045 6.1393 12.0471 6.10971 12.0973L3.21491 14.9921C2.70726 15.4997 2.4277 16.1746 2.4277 16.8925C2.4277 17.6104 2.70726 18.2853 3.21491 18.7929C3.72252 19.3005 4.39741 19.5801 5.11528 19.5801C5.83315 19.5801 6.50809 19.3005 7.0157 18.7929L8.87229 16.9363C9.00943 16.7992 9.00943 16.5768 8.87229 16.4398C8.73516 16.3026 8.51282 16.3026 8.37574 16.4398L6.51914 18.2964C6.14417 18.6713 5.6456 18.8778 5.11528 18.8778C4.58497 18.8778 4.08644 18.6713 3.71147 18.2964C3.3365 17.9214 3.12998 17.4229 3.12998 16.8925C3.12998 16.3622 3.3365 15.8637 3.71147 15.4887L6.26721 12.9329C6.52312 13.5568 6.90212 14.1286 7.3828 14.6093C8.34793 15.5744 9.63113 16.1059 10.996 16.1059C12.3609 16.1059 13.6441 15.5744 14.6092 14.6093L20.4978 8.72067C22.4902 6.72831 22.4902 3.48658 20.4979 1.49426Z" fill="#B2B4BE"/>
</g>
<defs>
<clipPath id="clip0_215_175">
<rect width="22" height="22" fill="white"/>
</clipPath>
</defs>
</svg>
