<svg width="27" height="27" viewBox="0 0 27 27" fill="none" xmlns="http://www.w3.org/2000/svg">
<path d="M15.6094 10.2998L17.2095 11.8999C17.4567 12.1464 17.7915 12.2849 18.1406 12.2849C18.4898 12.2849 18.8246 12.1464 19.0718 11.8999L23.5015 7.47018C23.5806 7.39105 23.625 7.28374 23.625 7.17185C23.625 7.05996 23.5806 6.95265 23.5015 6.87352L17.5952 0.967269C17.5161 0.888178 17.4088 0.84375 17.2969 0.84375C17.185 0.84375 17.0777 0.888178 16.9986 0.967269L13.9219 4.04394L12.3218 2.44383C12.0746 2.19729 11.7397 2.05883 11.3906 2.05883C11.0415 2.05883 10.7067 2.19729 10.4595 2.44383L6.32814 6.57519L5.36084 5.60789C5.2817 5.5288 5.1744 5.48438 5.06251 5.48438C4.95063 5.48438 4.84332 5.5288 4.76418 5.60789L3.49856 6.87352C3.41944 6.95265 3.375 7.05996 3.375 7.17185C3.375 7.28374 3.41944 7.39105 3.49856 7.47018L11.6377 15.6093L11.0923 16.1548C11.0132 16.2339 10.9688 16.3412 10.9688 16.4531V18.8096L10.5469 19.2315L10.4233 19.1079C10.3442 19.0288 10.2369 18.9844 10.125 18.9844C10.0131 18.9844 9.90582 19.0288 9.82668 19.1079L3.49856 25.436L4.09522 26.0327L10.125 20.0028L14.169 24.0468L12.7798 25.436L13.3765 26.0327L15.064 24.3452C15.1431 24.2661 15.1875 24.1587 15.1875 24.0468C15.1875 23.935 15.1431 23.8276 15.064 23.7485L14.5185 23.2031L16.875 20.8466L20.7954 24.7671C20.8746 24.8462 20.9819 24.8906 21.0938 24.8906C21.2057 24.8906 21.313 24.8462 21.3921 24.7671L22.6577 23.5014C22.7368 23.4223 22.7813 23.315 22.7813 23.2031C22.7813 23.0912 22.7368 22.9839 22.6577 22.9048L18.7373 18.9843L19.2827 18.4389C19.3618 18.3598 19.4063 18.2525 19.4063 18.1406C19.4063 18.0287 19.3618 17.9214 19.2827 17.8423L15.9077 14.4673C15.8286 14.3882 15.7213 14.3438 15.6094 14.3438C15.4975 14.3438 15.3902 14.3882 15.3111 14.4673L15.2741 14.5042C15.2168 14.0111 14.994 13.5519 14.6421 13.2016C14.563 13.1226 14.4556 13.0781 14.3438 13.0781C14.2319 13.0781 14.1246 13.1226 14.0454 13.2016L13.5 13.7471L12.831 13.0781L15.6094 10.2998ZM17.6314 9.61571L17.2095 10.0376C17.0951 10.1519 17.0028 10.2865 16.9374 10.4345L16.206 9.7031L16.9624 8.94674C17.0511 8.85803 17.1714 8.8082 17.2969 8.8082C17.4223 8.8082 17.5427 8.85803 17.6314 8.94674C17.7201 9.03545 17.7699 9.15577 17.7699 9.28122C17.7699 9.40668 17.7201 9.527 17.6314 9.61571ZM17.2969 1.86221L22.6065 7.17185L18.4751 11.3032C18.3864 11.3919 18.2661 11.4418 18.1406 11.4418C18.0152 11.4418 17.8949 11.3919 17.8062 11.3032C17.7174 11.2145 17.6676 11.0942 17.6676 10.9687C17.6676 10.8433 17.7174 10.723 17.8062 10.6342L18.228 10.2124C18.4749 9.96539 18.6137 9.63046 18.6137 9.28122C18.6137 8.93199 18.4749 8.59706 18.228 8.35008L14.5185 4.6406L17.2969 1.86221ZM11.0562 3.04049C11.1449 2.9519 11.2652 2.90214 11.3906 2.90214C11.5161 2.90214 11.6363 2.9519 11.7251 3.04049L16.7624 8.07771C16.6145 8.14325 16.48 8.2356 16.3657 8.35008L10.9688 13.7471L5.65915 8.4375L11.0562 3.04049ZM5.06251 6.50283L5.73148 7.17185L5.06249 7.84084L4.3935 7.17185L5.06251 6.50283ZM21.7628 23.2031L21.0938 23.8721L17.4717 20.25L18.1406 19.581L21.7628 23.2031ZM15.6094 15.3622L18.3878 18.1406L16.875 19.6534L14.0966 16.875L14.6421 16.3295L14.6431 16.3285L15.6094 15.3622ZM14.2971 14.1432C14.4282 14.4009 14.4745 14.6934 14.4293 14.9789C14.3841 15.2644 14.2497 15.5284 14.0454 15.7329L13.2017 16.5766C13.1226 16.6558 13.0781 16.7631 13.0781 16.875C13.0781 16.9869 13.1226 17.0942 13.2017 17.1733C13.5696 17.542 13.7762 18.0416 13.7762 18.5625C13.7762 19.0833 13.5696 19.5829 13.2017 19.9516L13.7983 20.5483C14.3183 20.0288 14.6131 19.3255 14.6189 18.5905L16.2784 20.25L13.9219 22.6064L11.1435 19.8281L11.689 19.2827C11.7681 19.2035 11.8125 19.0962 11.8125 18.9843V16.6278L14.2971 14.1432ZM12.9034 14.3437L12.2344 15.0127L11.5654 14.3437L12.2344 13.6748L12.9034 14.3437Z" fill="#63EE6A"/>
</svg>
