<svg width="20" height="20" viewBox="0 0 20 20" fill="none" xmlns="http://www.w3.org/2000/svg">
<g clip-path="url(#clip0_217_5801)">
<path d="M19.1913 12.3254C19.1077 12.242 19.0021 12.1839 18.8869 12.158C18.7716 12.1322 18.6514 12.1395 18.5401 12.1791C17.0447 12.7123 15.4287 12.8102 13.8798 12.4615C12.331 12.1127 10.9129 11.3316 9.79034 10.209C8.66776 9.08636 7.88677 7.66822 7.53812 6.11937C7.18947 4.57051 7.28746 2.95452 7.82071 1.45914C7.86034 1.34784 7.86761 1.22759 7.84168 1.11233C7.81574 0.99707 7.75768 0.89152 7.6742 0.807916C7.59073 0.724313 7.48527 0.66608 7.37005 0.639968C7.25483 0.613857 7.13457 0.620937 7.02321 0.660387C5.67502 1.13647 4.45155 1.91046 3.44384 2.92476C1.63735 4.73261 0.622808 7.18391 0.623291 9.73963C0.623774 12.2954 1.63925 14.7463 3.44642 16.5534C5.25358 18.3606 7.70449 19.3761 10.2602 19.3766C12.8159 19.377 15.2672 18.3625 17.0751 16.556C18.0895 15.5481 18.8635 14.3244 19.3395 12.976C19.3788 12.8646 19.3857 12.7444 19.3595 12.6293C19.3333 12.5141 19.275 12.4088 19.1913 12.3254Z" fill="black"/>
</g>
<defs>
<clipPath id="clip0_217_5801">
<rect width="20" height="20" fill="white"/>
</clipPath>
</defs>
</svg>
