<svg width="29" height="29" viewBox="0 0 29 29" fill="none" xmlns="http://www.w3.org/2000/svg">
<g clip-path="url(#clip0_217_5776)">
<path d="M14.5 0C6.48586 0 0 6.48513 0 14.5C0 22.514 6.48513 29 14.5 29C22.5141 29 29 22.5149 29 14.5C29 6.48586 22.5149 0 14.5 0ZM14.5 26.9767C7.62032 26.9767 2.02326 21.3797 2.02326 14.5C2.02326 7.62026 7.62032 2.02326 14.5 2.02326C21.3797 2.02326 26.9767 7.62026 26.9767 14.5C26.9767 21.3797 21.3797 26.9767 14.5 26.9767Z" fill="white"/>
<path d="M14.0709 18.3472C13.2693 18.3472 12.6204 19.0152 12.6204 19.8168C12.6204 20.5994 13.2502 21.2865 14.0709 21.2865C14.8917 21.2865 15.5405 20.5994 15.5405 19.8168C15.5405 19.0152 14.8725 18.3472 14.0709 18.3472Z" fill="white"/>
<path d="M14.3191 7.21973C11.7424 7.21973 10.5591 8.7467 10.5591 9.77733C10.5591 10.5217 11.1889 10.8653 11.7042 10.8653C12.7349 10.8653 12.3151 9.39558 14.2618 9.39558C15.2161 9.39558 15.9796 9.81551 15.9796 10.6935C15.9796 11.7241 14.9108 12.3158 14.2809 12.8502C13.7274 13.3273 13.0022 14.1099 13.0022 15.7513C13.0022 16.7438 13.2694 17.0301 14.0519 17.0301C14.9871 17.0301 15.178 16.6102 15.178 16.2475C15.178 15.255 15.197 14.6825 16.2468 13.8617C16.7621 13.461 18.3844 12.163 18.3844 10.3689C18.3844 8.57485 16.7621 7.21973 14.3191 7.21973Z" fill="white"/>
</g>
<defs>
<clipPath id="clip0_217_5776">
<rect width="29" height="29" fill="white"/>
</clipPath>
</defs>
</svg>
