<svg width="24" height="24" viewBox="0 0 24 24" fill="none" xmlns="http://www.w3.org/2000/svg">
<path fill-rule="evenodd" clip-rule="evenodd" d="M12.75 1C12.75 0.585786 12.4142 0.25 12 0.25C11.5858 0.25 11.25 0.585786 11.25 1V2.5H6.70399C6.04642 2.5 5.71764 2.5 5.41593 2.5982C5.28282 2.64152 5.15463 2.6987 5.03346 2.76879C4.75882 2.92767 4.53915 3.1723 4.09981 3.66156C3.24911 4.60893 2.82376 5.08262 2.72136 5.63619C2.67687 5.87669 2.67687 6.12331 2.72136 6.36381C2.82376 6.91738 3.24911 7.39107 4.09981 8.33844C4.53915 8.8277 4.75882 9.07233 5.03346 9.2312C5.15463 9.3013 5.28282 9.35848 5.41593 9.4018C5.71764 9.5 6.04642 9.5 6.70399 9.5H11.25V11.5H6.5C5.09554 11.5 4.39331 11.5 3.88886 11.8371C3.67048 11.983 3.48298 12.1705 3.33706 12.3889C3 12.8933 3 13.5955 3 15C3 16.4045 3 17.1067 3.33706 17.6111C3.48298 17.8295 3.67048 18.017 3.88886 18.1629C4.39331 18.5 5.09554 18.5 6.5 18.5H11.25V20.25H10C9.58579 20.25 9.25 20.5858 9.25 21C9.25 21.4142 9.58579 21.75 10 21.75H14C14.4142 21.75 14.75 21.4142 14.75 21C14.75 20.5858 14.4142 20.25 14 20.25H12.75V18.5H17.296C17.9536 18.5 18.2824 18.5 18.5841 18.4018C18.7172 18.3585 18.8454 18.3013 18.9665 18.2312C19.2412 18.0723 19.4608 17.8277 19.9002 17.3384C20.7509 16.3911 21.1762 15.9174 21.2786 15.3638C21.3231 15.1233 21.3231 14.8767 21.2786 14.6362C21.1762 14.0826 20.7509 13.6089 19.9002 12.6616C19.4608 12.1723 19.2412 11.9277 18.9665 11.7688C18.8454 11.6987 18.7172 11.6415 18.5841 11.5982C18.2824 11.5 17.9536 11.5 17.296 11.5H12.75V9.5H17.5C18.9045 9.5 19.6067 9.5 20.1111 9.16294C20.3295 9.01702 20.517 8.82952 20.6629 8.61114C21 8.10669 21 7.40446 21 6C21 4.59554 21 3.89331 20.6629 3.38886C20.517 3.17048 20.3295 2.98298 20.1111 2.83706C19.6067 2.5 18.9045 2.5 17.5 2.5H12.75V1ZM9 5.25C8.58579 5.25 8.25 5.58579 8.25 6C8.25 6.41421 8.58579 6.75 9 6.75H15C15.4142 6.75 15.75 6.41421 15.75 6C15.75 5.58579 15.4142 5.25 15 5.25H9ZM8.25 15C8.25 14.5858 8.58579 14.25 9 14.25H15C15.4142 14.25 15.75 14.5858 15.75 15C15.75 15.4142 15.4142 15.75 15 15.75H9C8.58579 15.75 8.25 15.4142 8.25 15Z" fill="#01121D"/>
</svg>
