<svg width="22" height="22" viewBox="0 0 22 22" fill="none" xmlns="http://www.w3.org/2000/svg">
<g clip-path="url(#clip0_217_5508)">
<path d="M11 22C17.0751 22 22 17.0751 22 11C22 4.92487 17.0751 0 11 0C4.92487 0 0 4.92487 0 11C0 17.0751 4.92487 22 11 22Z" fill="#63EE6A"/>
<path fill-rule="evenodd" clip-rule="evenodd" d="M12.3214 11.9512V11.9499C12.2458 11.9554 11.856 11.9787 10.9863 11.9787C10.2919 11.9787 9.80311 11.9581 9.63124 11.9499V11.9519C6.95824 11.8344 4.96311 11.3689 4.96311 10.812C4.96311 10.2559 6.95824 9.79041 9.63124 9.67079V11.4885C9.80586 11.5009 10.3064 11.5305 10.998 11.5305C11.8278 11.5305 12.2437 11.4961 12.3214 11.4892V9.67216C14.9889 9.7911 16.9792 10.2565 16.9792 10.812C16.9792 11.3689 14.9889 11.833 12.3214 11.9512ZM12.3214 9.4831V7.85648H16.0435V5.37598H5.90911V7.85648H9.63124V9.48241C6.60624 9.62129 4.3313 10.2208 4.3313 10.9385C4.3313 11.6563 6.60624 12.2551 9.63124 12.3947V17.6073H12.3214V12.3933C15.3416 12.2544 17.611 11.6556 17.611 10.9385C17.611 10.2215 15.3416 9.62266 12.3214 9.4831Z" fill="white"/>
</g>
<defs>
<clipPath id="clip0_217_5508">
<rect width="22" height="22" fill="white"/>
</clipPath>
</defs>
</svg>
