<svg width="21" height="21" viewBox="0 0 21 21" fill="none" xmlns="http://www.w3.org/2000/svg">
<path d="M16.5738 19.6875H4.42621C4.00764 19.6877 3.59347 19.6022 3.20926 19.4361C2.82506 19.27 2.47898 19.0269 2.1924 18.7218C1.90582 18.4168 1.68481 18.0562 1.54303 17.6623C1.40126 17.2685 1.34171 16.8498 1.36808 16.4321C1.57757 13.0829 2.29952 9.78558 3.50877 6.65526C3.6658 6.2409 3.94555 5.88434 4.31065 5.63323C4.67574 5.38212 5.10878 5.24842 5.5519 5.25001H15.4481C15.8913 5.24846 16.3244 5.38222 16.6895 5.63341C17.0546 5.8846 17.3343 6.24126 17.4913 6.6557C18.2892 8.72354 18.8764 10.8666 19.2439 13.0524C19.4314 14.1715 19.561 15.2996 19.632 16.4321C19.6583 16.8498 19.5988 17.2685 19.457 17.6623C19.3152 18.0562 19.0942 18.4168 18.8076 18.7218C18.5211 19.0269 18.175 19.27 17.7908 19.4361C17.4066 19.6022 16.9924 19.6877 16.5738 19.6875ZM5.5519 6.12501C5.28596 6.1248 5.02628 6.20562 4.80743 6.3567C4.58858 6.50779 4.42096 6.72196 4.3269 6.9707C3.14922 10.0174 2.44585 13.2268 2.24133 16.4868C2.22243 16.7852 2.26493 17.0844 2.3662 17.3658C2.46748 17.6472 2.62537 17.9048 2.83013 18.1228C3.03489 18.3407 3.28217 18.5144 3.5567 18.633C3.83122 18.7517 4.12715 18.8128 4.42621 18.8125H16.5738C16.8729 18.8128 17.1688 18.7517 17.4433 18.633C17.7179 18.5144 17.9651 18.3407 18.1699 18.1228C18.3747 17.9048 18.5326 17.6472 18.6338 17.3658C18.7351 17.0844 18.7776 16.7852 18.7587 16.4868C18.6897 15.3846 18.5637 14.2868 18.3811 13.1976C18.0232 11.0699 17.4516 8.9837 16.6749 6.9707C16.5807 6.72168 16.4128 6.50731 16.1936 6.35621C15.9744 6.2051 15.7144 6.12445 15.4481 6.12501H5.5519Z" fill="#63EE6A"/>
<path d="M8.53125 6.125C8.05534 6.125 7.59012 5.98388 7.19441 5.71948C6.7987 5.45507 6.49029 5.07927 6.30817 4.63958C6.12604 4.1999 6.07839 3.71608 6.17124 3.24932C6.26408 2.78255 6.49325 2.3538 6.82978 2.01728C7.1663 1.68076 7.59505 1.45158 8.06182 1.35874C8.52858 1.26589 9.0124 1.31354 9.45208 1.49567C9.89177 1.67779 10.2676 1.9862 10.532 2.38191C10.7964 2.77762 10.9375 3.24284 10.9375 3.71875C10.9368 4.35672 10.6831 4.96835 10.232 5.41946C9.78085 5.87057 9.16921 6.12431 8.53125 6.125ZM8.53125 2.1875C8.2284 2.1875 7.93235 2.27731 7.68053 2.44556C7.42872 2.61382 7.23246 2.85297 7.11656 3.13277C7.00066 3.41257 6.97034 3.72045 7.02942 4.01748C7.08851 4.31452 7.23434 4.58736 7.44849 4.80151C7.66264 5.01566 7.93549 5.1615 8.23252 5.22058C8.52955 5.27966 8.83744 5.24934 9.11723 5.13344C9.39703 5.01755 9.63618 4.82128 9.80444 4.56947C9.97269 4.31766 10.0625 4.0216 10.0625 3.71875C10.0625 3.31264 9.90117 2.92316 9.61401 2.63599C9.32684 2.34883 8.93736 2.1875 8.53125 2.1875Z" fill="#63EE6A"/>
<path d="M12.4688 6.125C11.9928 6.125 11.5276 5.98388 11.1319 5.71948C10.7362 5.45507 10.4278 5.07927 10.2457 4.63958C10.0635 4.1999 10.0159 3.71608 10.1087 3.24932C10.2016 2.78255 10.4308 2.3538 10.7673 2.01728C11.1038 1.68076 11.5325 1.45158 11.9993 1.35874C12.4661 1.26589 12.9499 1.31354 13.3896 1.49567C13.8293 1.67779 14.2051 1.9862 14.4695 2.38191C14.7339 2.77762 14.875 3.24284 14.875 3.71875C14.8743 4.35672 14.6206 4.96835 14.1695 5.41946C13.7184 5.87057 13.1067 6.12431 12.4688 6.125ZM12.4688 2.1875C12.1659 2.1875 11.8698 2.27731 11.618 2.44556C11.3662 2.61382 11.17 2.85297 11.0541 3.13277C10.9382 3.41257 10.9078 3.72045 10.9669 4.01748C11.026 4.31452 11.1718 4.58736 11.386 4.80151C11.6001 5.01566 11.873 5.1615 12.17 5.22058C12.4671 5.27966 12.7749 5.24934 13.0547 5.13344C13.3345 5.01755 13.5737 4.82128 13.7419 4.56947C13.9102 4.31766 14 4.0216 14 3.71875C14 3.31264 13.8387 2.92316 13.5515 2.63599C13.2643 2.34883 12.8749 2.1875 12.4688 2.1875Z" fill="#63EE6A"/>
<path d="M10.5 10.0625H3.0625C2.94647 10.0625 2.83519 10.0164 2.75314 9.93436C2.67109 9.85231 2.625 9.74103 2.625 9.625C2.625 9.50897 2.67109 9.39769 2.75314 9.31564C2.83519 9.23359 2.94647 9.1875 3.0625 9.1875H10.5C10.616 9.1875 10.7273 9.23359 10.8094 9.31564C10.8914 9.39769 10.9375 9.50897 10.9375 9.625C10.9375 9.74103 10.8914 9.85231 10.8094 9.93436C10.7273 10.0164 10.616 10.0625 10.5 10.0625Z" fill="#63EE6A"/>
</svg>
