<svg width="29" height="29" viewBox="0 0 29 29" fill="none" xmlns="http://www.w3.org/2000/svg">
<path d="M22.9424 2.39551C21.5684 2.39551 20.2216 2.86925 19.1501 3.72945C18.7842 4.02325 18.7258 4.55793 19.0195 4.92383C19.3133 5.28967 19.848 5.34824 20.2139 5.05445C20.9848 4.43553 21.9538 4.09473 22.9424 4.09473C25.3457 4.09473 27.3008 6.0499 27.3008 8.45317C27.3008 10.8564 25.3456 12.8116 22.9424 12.8116H6.9668C6.49759 12.8116 6.11719 13.192 6.11719 13.6612C6.11719 14.1304 6.49759 14.5108 6.9668 14.5108H22.9424C26.2826 14.5108 29.0001 11.7934 29.0001 8.45317C29.0001 5.11295 26.2826 2.39551 22.9424 2.39551Z" fill="white"/>
<path d="M5.33911 11.1182H14.415C14.8843 11.1182 15.2646 10.7378 15.2646 10.2686C15.2646 9.79934 14.8843 9.41895 14.415 9.41895H5.33911C4.8699 9.41895 4.4895 9.79934 4.4895 10.2686C4.4895 10.7378 4.8699 11.1182 5.33911 11.1182Z" fill="white"/>
<path d="M14.1769 16.2158H0.849609C0.380398 16.2158 0 16.5962 0 17.0654C0 17.5346 0.380398 17.915 0.849609 17.915H14.1769C16.1041 17.915 17.672 19.4829 17.672 21.4101C17.672 23.3373 16.1041 24.9052 14.1769 24.9052C13.3841 24.9052 12.6071 24.6318 11.9888 24.1355C11.623 23.8418 11.0883 23.9003 10.7945 24.2662C10.5007 24.6321 10.5592 25.1668 10.9251 25.4605C11.8438 26.1981 12.9987 26.6043 14.1769 26.6043C17.041 26.6043 19.3712 24.2742 19.3712 21.41C19.3712 18.5459 17.041 16.2158 14.1769 16.2158Z" fill="white"/>
<path d="M0.849609 11.1182H1.99573C2.46494 11.1182 2.84534 10.7378 2.84534 10.2686C2.84534 9.79934 2.46494 9.41895 1.99573 9.41895H0.849609C0.380398 9.41895 0 9.79934 0 10.2686C0 10.7378 0.380398 11.1182 0.849609 11.1182Z" fill="white"/>
<path d="M11.1016 20.4473C11.1016 19.9781 10.7212 19.5977 10.252 19.5977H5.1543C4.68509 19.5977 4.30469 19.9781 4.30469 20.4473C4.30469 20.9165 4.68509 21.2969 5.1543 21.2969H10.252C10.7212 21.2969 11.1016 20.9165 11.1016 20.4473Z" fill="white"/>
</svg>
