<svg width="32" height="32" viewBox="0 0 32 32" fill="none" xmlns="http://www.w3.org/2000/svg">
<path d="M11 10V21.5C11.8 21.5 19.3333 17.8333 23 16L11 10Z" fill="white"/>
<path d="M25.354 4.67822H6.64599C2.97551 4.67822 0 7.65373 0 11.3242V20.6762C0 24.3467 2.97551 27.3222 6.64599 27.3222H25.354C29.0245 27.3222 32 24.3467 32 20.6762V11.3242C32 7.65373 29.0245 4.67822 25.354 4.67822ZM20.8594 16.4552L12.109 20.6286C11.8759 20.7398 11.6065 20.5698 11.6065 20.3115V11.7039C11.6065 11.4419 11.8829 11.2722 12.1166 11.3906L20.8669 15.8248C21.1271 15.9566 21.1226 16.3297 20.8594 16.4552Z" fill="#F61C0D"/>
</svg>
